<?xml version="1.0" encoding="UTF-8" standalone="no"?>
<!DOCTYPE svg PUBLIC "-//W3C//DTD SVG 1.1//EN"
 "http://www.w3.org/Graphics/SVG/1.1/DTD/svg11.dtd">
<!-- Generated by graphviz version 2.47.0 (20210316.0004)
 -->
<!-- Title: dbml Pages: 1 -->
<svg width="1907pt" height="3639pt"
 viewBox="0.00 0.00 1907.16 3638.68" xmlns="http://www.w3.org/2000/svg" xmlns:xlink="http://www.w3.org/1999/xlink">
<g id="graph0" class="graph" transform="scale(1 1) rotate(0) translate(4 3634.68)">
<title>dbml</title>
<!-- Benefit -->
<g id="Benefit" class="node">
<title>Benefit</title>
<ellipse fill="none" stroke="black" stroke-width="0" cx="311.13" cy="-2241.72" rx="263.09" ry="214.92"/>
<polygon fill="#1d71b8" stroke="transparent" points="127.13,-2331.72 127.13,-2391.72 495.13,-2391.72 495.13,-2331.72 127.13,-2331.72"/>
<polygon fill="none" stroke="#29235c" points="127.13,-2331.72 127.13,-2391.72 495.13,-2391.72 495.13,-2331.72 127.13,-2331.72"/>
<text text-anchor="start" x="199.08" y="-2352.92" font-family="Helvetica,sans-Serif" font-weight="bold" font-size="32.00" fill="#ffffff"> &#160;&#160;&#160;&#160;&#160;&#160;Benefit &#160;&#160;&#160;&#160;&#160;&#160;</text>
<polygon fill="#e7e2dd" stroke="transparent" points="127.13,-2271.72 127.13,-2331.72 495.13,-2331.72 495.13,-2271.72 127.13,-2271.72"/>
<polygon fill="none" stroke="#29235c" points="127.13,-2271.72 127.13,-2331.72 495.13,-2331.72 495.13,-2271.72 127.13,-2271.72"/>
<text text-anchor="start" x="138.13" y="-2292.92" font-family="Helvetica,sans-Serif" font-weight="bold" font-size="32.00" fill="#29235c">id</text>
<text text-anchor="start" x="163.02" y="-2292.92" font-family="Helvetica,sans-Serif" font-size="32.00" fill="#29235c"> &#160;&#160;&#160;</text>
<text text-anchor="start" x="341.91" y="-2292.92" font-family="Helvetica,sans-Serif" font-style="italic" font-size="32.00" fill="#29235c">INTEGER</text>
<polygon fill="#e7e2dd" stroke="transparent" points="127.13,-2211.72 127.13,-2271.72 495.13,-2271.72 495.13,-2211.72 127.13,-2211.72"/>
<polygon fill="none" stroke="#29235c" points="127.13,-2211.72 127.13,-2271.72 495.13,-2271.72 495.13,-2211.72 127.13,-2211.72"/>
<text text-anchor="start" x="138.13" y="-2231.92" font-family="Helvetica,sans-Serif" font-size="32.00" fill="#29235c">name &#160;&#160;&#160;</text>
<text text-anchor="start" x="327.7" y="-2232.92" font-family="Helvetica,sans-Serif" font-style="italic" font-size="32.00" fill="#29235c">VARCHAR</text>
<polygon fill="#e7e2dd" stroke="transparent" points="127.13,-2151.72 127.13,-2211.72 495.13,-2211.72 495.13,-2151.72 127.13,-2151.72"/>
<polygon fill="none" stroke="#29235c" points="127.13,-2151.72 127.13,-2211.72 495.13,-2211.72 495.13,-2151.72 127.13,-2151.72"/>
<text text-anchor="start" x="138.13" y="-2171.92" font-family="Helvetica,sans-Serif" font-size="32.00" fill="#29235c">player_id &#160;&#160;&#160;</text>
<text text-anchor="start" x="341.91" y="-2172.92" font-family="Helvetica,sans-Serif" font-style="italic" font-size="32.00" fill="#29235c">INTEGER</text>
<polygon fill="#e7e2dd" stroke="transparent" points="127.13,-2091.72 127.13,-2151.72 495.13,-2151.72 495.13,-2091.72 127.13,-2091.72"/>
<polygon fill="none" stroke="#29235c" points="127.13,-2091.72 127.13,-2151.72 495.13,-2151.72 495.13,-2091.72 127.13,-2091.72"/>
<text text-anchor="start" x="138" y="-2111.92" font-family="Helvetica,sans-Serif" font-size="32.00" fill="#29235c">description &#160;&#160;&#160;</text>
<text text-anchor="start" x="327.91" y="-2112.92" font-family="Helvetica,sans-Serif" font-style="italic" font-size="32.00" fill="#29235c">VARCHAR</text>
<polygon fill="none" stroke="#29235c" stroke-width="2" points="126.13,-2090.72 126.13,-2392.72 496.13,-2392.72 496.13,-2090.72 126.13,-2090.72"/>
</g>
<!-- Player -->
<g id="Player" class="node">
<title>Player</title>
<ellipse fill="none" stroke="black" stroke-width="0" cx="958.77" cy="-1231.72" rx="300.54" ry="257.27"/>
<polygon fill="#1d71b8" stroke="transparent" points="748.77,-1351.72 748.77,-1411.72 1169.77,-1411.72 1169.77,-1351.72 748.77,-1351.72"/>
<polygon fill="none" stroke="#29235c" points="748.77,-1351.72 748.77,-1411.72 1169.77,-1411.72 1169.77,-1351.72 748.77,-1351.72"/>
<text text-anchor="start" x="851.69" y="-1372.92" font-family="Helvetica,sans-Serif" font-weight="bold" font-size="32.00" fill="#ffffff"> &#160;&#160;&#160;&#160;&#160;&#160;Player &#160;&#160;&#160;&#160;&#160;&#160;</text>
<polygon fill="#e7e2dd" stroke="transparent" points="748.77,-1291.72 748.77,-1351.72 1169.77,-1351.72 1169.77,-1291.72 748.77,-1291.72"/>
<polygon fill="none" stroke="#29235c" points="748.77,-1291.72 748.77,-1351.72 1169.77,-1351.72 1169.77,-1291.72 748.77,-1291.72"/>
<text text-anchor="start" x="759.77" y="-1312.92" font-family="Helvetica,sans-Serif" font-weight="bold" font-size="32.00" fill="#29235c">id</text>
<text text-anchor="start" x="784.66" y="-1312.92" font-family="Helvetica,sans-Serif" font-size="32.00" fill="#29235c"> &#160;&#160;&#160;</text>
<text text-anchor="start" x="1016.56" y="-1312.92" font-family="Helvetica,sans-Serif" font-style="italic" font-size="32.00" fill="#29235c">INTEGER</text>
<polygon fill="#e7e2dd" stroke="transparent" points="748.77,-1231.72 748.77,-1291.72 1169.77,-1291.72 1169.77,-1231.72 748.77,-1231.72"/>
<polygon fill="none" stroke="#29235c" points="748.77,-1231.72 748.77,-1291.72 1169.77,-1291.72 1169.77,-1231.72 748.77,-1231.72"/>
<text text-anchor="start" x="759.77" y="-1251.92" font-family="Helvetica,sans-Serif" font-size="32.00" fill="#29235c">name &#160;&#160;&#160;</text>
<text text-anchor="start" x="1002.35" y="-1252.92" font-family="Helvetica,sans-Serif" font-style="italic" font-size="32.00" fill="#29235c">VARCHAR</text>
<polygon fill="#e7e2dd" stroke="transparent" points="748.77,-1171.72 748.77,-1231.72 1169.77,-1231.72 1169.77,-1171.72 748.77,-1171.72"/>
<polygon fill="none" stroke="#29235c" points="748.77,-1171.72 748.77,-1231.72 1169.77,-1231.72 1169.77,-1171.72 748.77,-1171.72"/>
<text text-anchor="start" x="759.77" y="-1191.92" font-family="Helvetica,sans-Serif" font-size="32.00" fill="#29235c">position &#160;&#160;&#160;</text>
<text text-anchor="start" x="1002.35" y="-1192.92" font-family="Helvetica,sans-Serif" font-style="italic" font-size="32.00" fill="#29235c">VARCHAR</text>
<polygon fill="#e7e2dd" stroke="transparent" points="748.77,-1111.72 748.77,-1171.72 1169.77,-1171.72 1169.77,-1111.72 748.77,-1111.72"/>
<polygon fill="none" stroke="#29235c" points="748.77,-1111.72 748.77,-1171.72 1169.77,-1171.72 1169.77,-1111.72 748.77,-1111.72"/>
<text text-anchor="start" x="759.77" y="-1131.92" font-family="Helvetica,sans-Serif" font-size="32.00" fill="#29235c">history &#160;&#160;&#160;</text>
<text text-anchor="start" x="1002.35" y="-1132.92" font-family="Helvetica,sans-Serif" font-style="italic" font-size="32.00" fill="#29235c">VARCHAR</text>
<polygon fill="#e7e2dd" stroke="transparent" points="748.77,-1051.72 748.77,-1111.72 1169.77,-1111.72 1169.77,-1051.72 748.77,-1051.72"/>
<polygon fill="none" stroke="#29235c" points="748.77,-1051.72 748.77,-1111.72 1169.77,-1111.72 1169.77,-1051.72 748.77,-1051.72"/>
<text text-anchor="start" x="759.34" y="-1071.92" font-family="Helvetica,sans-Serif" font-size="32.00" fill="#29235c">football_club_id &#160;&#160;&#160;</text>
<text text-anchor="start" x="1016.67" y="-1072.92" font-family="Helvetica,sans-Serif" font-style="italic" font-size="32.00" fill="#29235c">INTEGER</text>
<polygon fill="none" stroke="#29235c" stroke-width="2" points="747.27,-1050.72 747.27,-1412.72 1170.27,-1412.72 1170.27,-1050.72 747.27,-1050.72"/>
</g>
<!-- Benefit&#45;&gt;Player -->
<!-- Benefit&#45;&gt;Player -->
<g id="edge2" class="edge">
<title>Benefit:e&#45;&gt;Player:w</title>
<path fill="none" stroke="#29235c" stroke-width="3" d="M496.13,-2181.72C588.08,-2181.72 585.01,-2101.79 622.25,-2017.72 684.48,-1877.25 594.81,-1346.32 737.56,-1322.54"/>
<polygon fill="#29235c" stroke="#29235c" stroke-width="3" points="738.09,-1326.01 747.77,-1321.72 737.52,-1319.03 738.09,-1326.01"/>
<text text-anchor="middle" x="741.55" y="-1292.92" font-family="Helvetica,sans-Serif" font-size="32.00" fill="#29235c">*</text>
<text text-anchor="middle" x="487.23" y="-2152.92" font-family="Helvetica,sans-Serif" font-size="32.00" fill="#29235c">1</text>
</g>
<!-- FootballClub -->
<g id="FootballClub" class="node">
<title>FootballClub</title>
<ellipse fill="none" stroke="black" stroke-width="0" cx="1597.23" cy="-703.72" rx="301.87" ry="214.92"/>
<polygon fill="#1d71b8" stroke="transparent" points="1386.23,-793.72 1386.23,-853.72 1809.23,-853.72 1809.23,-793.72 1386.23,-793.72"/>
<polygon fill="none" stroke="#29235c" points="1386.23,-793.72 1386.23,-853.72 1809.23,-853.72 1809.23,-793.72 1386.23,-793.72"/>
<text text-anchor="start" x="1445.69" y="-814.92" font-family="Helvetica,sans-Serif" font-weight="bold" font-size="32.00" fill="#ffffff"> &#160;&#160;&#160;&#160;&#160;&#160;FootballClub &#160;&#160;&#160;&#160;&#160;&#160;</text>
<polygon fill="#e7e2dd" stroke="transparent" points="1386.23,-733.72 1386.23,-793.72 1809.23,-793.72 1809.23,-733.72 1386.23,-733.72"/>
<polygon fill="none" stroke="#29235c" points="1386.23,-733.72 1386.23,-793.72 1809.23,-793.72 1809.23,-733.72 1386.23,-733.72"/>
<text text-anchor="start" x="1397.23" y="-754.92" font-family="Helvetica,sans-Serif" font-weight="bold" font-size="32.00" fill="#29235c">id</text>
<text text-anchor="start" x="1422.12" y="-754.92" font-family="Helvetica,sans-Serif" font-size="32.00" fill="#29235c"> &#160;&#160;&#160;</text>
<text text-anchor="start" x="1656.01" y="-754.92" font-family="Helvetica,sans-Serif" font-style="italic" font-size="32.00" fill="#29235c">INTEGER</text>
<polygon fill="#e7e2dd" stroke="transparent" points="1386.23,-673.72 1386.23,-733.72 1809.23,-733.72 1809.23,-673.72 1386.23,-673.72"/>
<polygon fill="none" stroke="#29235c" points="1386.23,-673.72 1386.23,-733.72 1809.23,-733.72 1809.23,-673.72 1386.23,-673.72"/>
<text text-anchor="start" x="1397.23" y="-693.92" font-family="Helvetica,sans-Serif" font-size="32.00" fill="#29235c">name &#160;&#160;&#160;</text>
<text text-anchor="start" x="1641.8" y="-694.92" font-family="Helvetica,sans-Serif" font-style="italic" font-size="32.00" fill="#29235c">VARCHAR</text>
<polygon fill="#e7e2dd" stroke="transparent" points="1386.23,-613.72 1386.23,-673.72 1809.23,-673.72 1809.23,-613.72 1386.23,-613.72"/>
<polygon fill="none" stroke="#29235c" points="1386.23,-613.72 1386.23,-673.72 1809.23,-673.72 1809.23,-613.72 1386.23,-613.72"/>
<text text-anchor="start" x="1397.03" y="-633.92" font-family="Helvetica,sans-Serif" font-size="32.00" fill="#29235c">stadium_name &#160;&#160;&#160;</text>
<text text-anchor="start" x="1642.02" y="-634.92" font-family="Helvetica,sans-Serif" font-style="italic" font-size="32.00" fill="#29235c">VARCHAR</text>
<polygon fill="#e7e2dd" stroke="transparent" points="1386.23,-553.72 1386.23,-613.72 1809.23,-613.72 1809.23,-553.72 1386.23,-553.72"/>
<polygon fill="none" stroke="#29235c" points="1386.23,-553.72 1386.23,-613.72 1809.23,-613.72 1809.23,-553.72 1386.23,-553.72"/>
<text text-anchor="start" x="1397.23" y="-573.92" font-family="Helvetica,sans-Serif" font-size="32.00" fill="#29235c">foundation_date &#160;&#160;&#160;</text>
<text text-anchor="start" x="1712.9" y="-574.92" font-family="Helvetica,sans-Serif" font-style="italic" font-size="32.00" fill="#29235c">DATE</text>
<polygon fill="none" stroke="#29235c" stroke-width="2" points="1384.73,-552.72 1384.73,-854.72 1809.73,-854.72 1809.73,-552.72 1384.73,-552.72"/>
</g>
<!-- Player&#45;&gt;FootballClub -->
<!-- Player&#45;&gt;FootballClub -->
<g id="edge4" class="edge">
<title>Player:e&#45;&gt;FootballClub:w</title>
<path fill="none" stroke="#29235c" stroke-width="3" d="M1170.77,-1081.72C1337.75,-1081.72 1219.82,-776.63 1375.11,-764.11"/>
<polygon fill="#29235c" stroke="#29235c" stroke-width="3" points="1375.37,-767.61 1385.23,-763.72 1375.1,-760.61 1375.37,-767.61"/>
<text text-anchor="middle" x="1391.45" y="-734.92" font-family="Helvetica,sans-Serif" font-size="32.00" fill="#29235c">*</text>
<text text-anchor="middle" x="1161.88" y="-1052.92" font-family="Helvetica,sans-Serif" font-size="32.00" fill="#29235c">1</text>
</g>
<!-- BroadcastSchedule -->
<g id="BroadcastSchedule" class="node">
<title>BroadcastSchedule</title>
<ellipse fill="none" stroke="black" stroke-width="0" cx="311.13" cy="-2689.72" rx="311.25" ry="214.92"/>
<polygon fill="#1d71b8" stroke="transparent" points="93.13,-2779.72 93.13,-2839.72 529.13,-2839.72 529.13,-2779.72 93.13,-2779.72"/>
<polygon fill="none" stroke="#29235c" points="93.13,-2779.72 93.13,-2839.72 529.13,-2839.72 529.13,-2779.72 93.13,-2779.72"/>
<text text-anchor="start" x="110.16" y="-2800.92" font-family="Helvetica,sans-Serif" font-weight="bold" font-size="32.00" fill="#ffffff"> &#160;&#160;&#160;&#160;&#160;&#160;BroadcastSchedule &#160;&#160;&#160;&#160;&#160;&#160;</text>
<polygon fill="#e7e2dd" stroke="transparent" points="93.13,-2719.72 93.13,-2779.72 529.13,-2779.72 529.13,-2719.72 93.13,-2719.72"/>
<polygon fill="none" stroke="#29235c" points="93.13,-2719.72 93.13,-2779.72 529.13,-2779.72 529.13,-2719.72 93.13,-2719.72"/>
<text text-anchor="start" x="104.13" y="-2740.92" font-family="Helvetica,sans-Serif" font-weight="bold" font-size="32.00" fill="#29235c">id</text>
<text text-anchor="start" x="129.02" y="-2740.92" font-family="Helvetica,sans-Serif" font-size="32.00" fill="#29235c"> &#160;&#160;&#160;</text>
<text text-anchor="start" x="375.91" y="-2740.92" font-family="Helvetica,sans-Serif" font-style="italic" font-size="32.00" fill="#29235c">INTEGER</text>
<polygon fill="#e7e2dd" stroke="transparent" points="93.13,-2659.72 93.13,-2719.72 529.13,-2719.72 529.13,-2659.72 93.13,-2659.72"/>
<polygon fill="none" stroke="#29235c" points="93.13,-2659.72 93.13,-2719.72 529.13,-2719.72 529.13,-2659.72 93.13,-2659.72"/>
<text text-anchor="start" x="104.13" y="-2679.92" font-family="Helvetica,sans-Serif" font-size="32.00" fill="#29235c">game_id &#160;&#160;&#160;</text>
<text text-anchor="start" x="375.91" y="-2680.92" font-family="Helvetica,sans-Serif" font-style="italic" font-size="32.00" fill="#29235c">INTEGER</text>
<polygon fill="#e7e2dd" stroke="transparent" points="93.13,-2599.72 93.13,-2659.72 529.13,-2659.72 529.13,-2599.72 93.13,-2599.72"/>
<polygon fill="none" stroke="#29235c" points="93.13,-2599.72 93.13,-2659.72 529.13,-2659.72 529.13,-2599.72 93.13,-2599.72"/>
<text text-anchor="start" x="104.07" y="-2619.92" font-family="Helvetica,sans-Serif" font-size="32.00" fill="#29235c">tv_announcer_id &#160;&#160;&#160;</text>
<text text-anchor="start" x="376.02" y="-2620.92" font-family="Helvetica,sans-Serif" font-style="italic" font-size="32.00" fill="#29235c">INTEGER</text>
<polygon fill="#e7e2dd" stroke="transparent" points="93.13,-2539.72 93.13,-2599.72 529.13,-2599.72 529.13,-2539.72 93.13,-2539.72"/>
<polygon fill="none" stroke="#29235c" points="93.13,-2539.72 93.13,-2599.72 529.13,-2599.72 529.13,-2539.72 93.13,-2539.72"/>
<text text-anchor="start" x="104.13" y="-2559.92" font-family="Helvetica,sans-Serif" font-size="32.00" fill="#29235c">game_date &#160;&#160;&#160;</text>
<text text-anchor="start" x="432.8" y="-2560.92" font-family="Helvetica,sans-Serif" font-style="italic" font-size="32.00" fill="#29235c">DATE</text>
<polygon fill="none" stroke="#29235c" stroke-width="2" points="92.13,-2538.72 92.13,-2840.72 530.13,-2840.72 530.13,-2538.72 92.13,-2538.72"/>
</g>
<!-- TvAnnouncer -->
<g id="TvAnnouncer" class="node">
<title>TvAnnouncer</title>
<ellipse fill="none" stroke="black" stroke-width="0" cx="958.77" cy="-2719.72" rx="240.33" ry="172.57"/>
<polygon fill="#1d71b8" stroke="transparent" points="790.77,-2779.72 790.77,-2839.72 1126.77,-2839.72 1126.77,-2779.72 790.77,-2779.72"/>
<polygon fill="none" stroke="#29235c" points="790.77,-2779.72 790.77,-2839.72 1126.77,-2839.72 1126.77,-2779.72 790.77,-2779.72"/>
<text text-anchor="start" x="801.39" y="-2800.92" font-family="Helvetica,sans-Serif" font-weight="bold" font-size="32.00" fill="#ffffff"> &#160;&#160;&#160;&#160;&#160;&#160;TvAnnouncer &#160;&#160;&#160;&#160;&#160;&#160;</text>
<polygon fill="#e7e2dd" stroke="transparent" points="790.77,-2719.72 790.77,-2779.72 1126.77,-2779.72 1126.77,-2719.72 790.77,-2719.72"/>
<polygon fill="none" stroke="#29235c" points="790.77,-2719.72 790.77,-2779.72 1126.77,-2779.72 1126.77,-2719.72 790.77,-2719.72"/>
<text text-anchor="start" x="801.77" y="-2740.92" font-family="Helvetica,sans-Serif" font-weight="bold" font-size="32.00" fill="#29235c">id</text>
<text text-anchor="start" x="826.66" y="-2740.92" font-family="Helvetica,sans-Serif" font-size="32.00" fill="#29235c"> &#160;&#160;&#160;</text>
<text text-anchor="start" x="973.56" y="-2740.92" font-family="Helvetica,sans-Serif" font-style="italic" font-size="32.00" fill="#29235c">INTEGER</text>
<polygon fill="#e7e2dd" stroke="transparent" points="790.77,-2659.72 790.77,-2719.72 1126.77,-2719.72 1126.77,-2659.72 790.77,-2659.72"/>
<polygon fill="none" stroke="#29235c" points="790.77,-2659.72 790.77,-2719.72 1126.77,-2719.72 1126.77,-2659.72 790.77,-2659.72"/>
<text text-anchor="start" x="801.77" y="-2679.92" font-family="Helvetica,sans-Serif" font-size="32.00" fill="#29235c">name &#160;&#160;&#160;</text>
<text text-anchor="start" x="959.35" y="-2680.92" font-family="Helvetica,sans-Serif" font-style="italic" font-size="32.00" fill="#29235c">VARCHAR</text>
<polygon fill="#e7e2dd" stroke="transparent" points="790.77,-2599.72 790.77,-2659.72 1126.77,-2659.72 1126.77,-2599.72 790.77,-2599.72"/>
<polygon fill="none" stroke="#29235c" points="790.77,-2599.72 790.77,-2659.72 1126.77,-2659.72 1126.77,-2599.72 790.77,-2599.72"/>
<text text-anchor="start" x="801.77" y="-2619.92" font-family="Helvetica,sans-Serif" font-size="32.00" fill="#29235c">network &#160;&#160;&#160;</text>
<text text-anchor="start" x="959.35" y="-2620.92" font-family="Helvetica,sans-Serif" font-style="italic" font-size="32.00" fill="#29235c">VARCHAR</text>
<polygon fill="none" stroke="#29235c" stroke-width="2" points="789.77,-2598.72 789.77,-2840.72 1127.77,-2840.72 1127.77,-2598.72 789.77,-2598.72"/>
</g>
<!-- BroadcastSchedule&#45;&gt;TvAnnouncer -->
<!-- BroadcastSchedule&#45;&gt;TvAnnouncer -->
<g id="edge6" class="edge">
<title>BroadcastSchedule:e&#45;&gt;TvAnnouncer:w</title>
<path fill="none" stroke="#29235c" stroke-width="3" d="M530.13,-2629.72C653.78,-2629.72 662.26,-2743.24 779.61,-2749.45"/>
<polygon fill="#29235c" stroke="#29235c" stroke-width="3" points="779.69,-2752.96 789.77,-2749.72 779.87,-2745.96 779.69,-2752.96"/>
<text text-anchor="middle" x="783.55" y="-2759.32" font-family="Helvetica,sans-Serif" font-size="32.00" fill="#29235c">*</text>
<text text-anchor="middle" x="521.23" y="-2639.32" font-family="Helvetica,sans-Serif" font-size="32.00" fill="#29235c">1</text>
</g>
<!-- CharityAffiliation -->
<g id="CharityAffiliation" class="node">
<title>CharityAffiliation</title>
<ellipse fill="none" stroke="black" stroke-width="0" cx="311.13" cy="-813.72" rx="269.32" ry="214.92"/>
<polygon fill="#1d71b8" stroke="transparent" points="123.13,-903.72 123.13,-963.72 500.13,-963.72 500.13,-903.72 123.13,-903.72"/>
<polygon fill="none" stroke="#29235c" points="123.13,-903.72 123.13,-963.72 500.13,-963.72 500.13,-903.72 123.13,-903.72"/>
<text text-anchor="start" x="133.82" y="-924.92" font-family="Helvetica,sans-Serif" font-weight="bold" font-size="32.00" fill="#ffffff"> &#160;&#160;&#160;&#160;&#160;&#160;CharityAffiliation &#160;&#160;&#160;&#160;&#160;&#160;</text>
<polygon fill="#e7e2dd" stroke="transparent" points="123.13,-843.72 123.13,-903.72 500.13,-903.72 500.13,-843.72 123.13,-843.72"/>
<polygon fill="none" stroke="#29235c" points="123.13,-843.72 123.13,-903.72 500.13,-903.72 500.13,-843.72 123.13,-843.72"/>
<text text-anchor="start" x="134.13" y="-864.92" font-family="Helvetica,sans-Serif" font-weight="bold" font-size="32.00" fill="#29235c">id</text>
<text text-anchor="start" x="159.02" y="-864.92" font-family="Helvetica,sans-Serif" font-size="32.00" fill="#29235c"> &#160;&#160;&#160;</text>
<text text-anchor="start" x="346.91" y="-864.92" font-family="Helvetica,sans-Serif" font-style="italic" font-size="32.00" fill="#29235c">INTEGER</text>
<polygon fill="#e7e2dd" stroke="transparent" points="123.13,-783.72 123.13,-843.72 500.13,-843.72 500.13,-783.72 123.13,-783.72"/>
<polygon fill="none" stroke="#29235c" points="123.13,-783.72 123.13,-843.72 500.13,-843.72 500.13,-783.72 123.13,-783.72"/>
<text text-anchor="start" x="134.13" y="-803.92" font-family="Helvetica,sans-Serif" font-size="32.00" fill="#29235c">name &#160;&#160;&#160;</text>
<text text-anchor="start" x="332.7" y="-804.92" font-family="Helvetica,sans-Serif" font-style="italic" font-size="32.00" fill="#29235c">VARCHAR</text>
<polygon fill="#e7e2dd" stroke="transparent" points="123.13,-723.72 123.13,-783.72 500.13,-783.72 500.13,-723.72 123.13,-723.72"/>
<polygon fill="none" stroke="#29235c" points="123.13,-723.72 123.13,-783.72 500.13,-783.72 500.13,-723.72 123.13,-723.72"/>
<text text-anchor="start" x="134.13" y="-743.92" font-family="Helvetica,sans-Serif" font-size="32.00" fill="#29235c">player_id &#160;&#160;&#160;</text>
<text text-anchor="start" x="346.91" y="-744.92" font-family="Helvetica,sans-Serif" font-style="italic" font-size="32.00" fill="#29235c">INTEGER</text>
<polygon fill="#e7e2dd" stroke="transparent" points="123.13,-663.72 123.13,-723.72 500.13,-723.72 500.13,-663.72 123.13,-663.72"/>
<polygon fill="none" stroke="#29235c" points="123.13,-663.72 123.13,-723.72 500.13,-723.72 500.13,-663.72 123.13,-663.72"/>
<text text-anchor="start" x="134.13" y="-683.92" font-family="Helvetica,sans-Serif" font-size="32.00" fill="#29235c">club_id &#160;&#160;&#160;</text>
<text text-anchor="start" x="346.91" y="-684.92" font-family="Helvetica,sans-Serif" font-style="italic" font-size="32.00" fill="#29235c">INTEGER</text>
<polygon fill="none" stroke="#29235c" stroke-width="2" points="121.63,-662.72 121.63,-964.72 500.63,-964.72 500.63,-662.72 121.63,-662.72"/>
</g>
<!-- CharityAffiliation&#45;&gt;Player -->
<!-- CharityAffiliation&#45;&gt;Player -->
<g id="edge10" class="edge">
<title>CharityAffiliation:e&#45;&gt;Player:w</title>
<path fill="none" stroke="#29235c" stroke-width="3" d="M501.13,-753.72C635.24,-753.72 611.51,-1293.24 737.61,-1320.64"/>
<polygon fill="#29235c" stroke="#29235c" stroke-width="3" points="737.46,-1324.14 747.77,-1321.72 738.2,-1317.18 737.46,-1324.14"/>
<text text-anchor="middle" x="741.55" y="-1331.32" font-family="Helvetica,sans-Serif" font-size="32.00" fill="#29235c">*</text>
<text text-anchor="middle" x="492.23" y="-724.92" font-family="Helvetica,sans-Serif" font-size="32.00" fill="#29235c">1</text>
</g>
<!-- CharityAffiliation&#45;&gt;FootballClub -->
<!-- CharityAffiliation&#45;&gt;FootballClub -->
<g id="edge8" class="edge">
<title>CharityAffiliation:e&#45;&gt;FootballClub:w</title>
<path fill="none" stroke="#29235c" stroke-width="3" d="M501.13,-693.72C803.52,-693.72 421.02,-219.24 658.25,-31.72 710.65,9.69 1208.23,11.32 1259.29,-31.72 1509.02,-242.15 1064.84,-752.6 1374.86,-763.54"/>
<polygon fill="#29235c" stroke="#29235c" stroke-width="3" points="1375.17,-767.04 1385.23,-763.72 1375.29,-760.05 1375.17,-767.04"/>
<text text-anchor="middle" x="1391.45" y="-773.32" font-family="Helvetica,sans-Serif" font-size="32.00" fill="#29235c">*</text>
<text text-anchor="middle" x="492.23" y="-664.92" font-family="Helvetica,sans-Serif" font-size="32.00" fill="#29235c">1</text>
</g>
<!-- GameStatistic -->
<g id="GameStatistic" class="node">
<title>GameStatistic</title>
<ellipse fill="none" stroke="black" stroke-width="0" cx="311.13" cy="-1751.72" rx="246.56" ry="257.27"/>
<polygon fill="#1d71b8" stroke="transparent" points="139.13,-1871.72 139.13,-1931.72 484.13,-1931.72 484.13,-1871.72 139.13,-1871.72"/>
<polygon fill="none" stroke="#29235c" points="139.13,-1871.72 139.13,-1931.72 484.13,-1931.72 484.13,-1871.72 139.13,-1871.72"/>
<text text-anchor="start" x="149.81" y="-1892.92" font-family="Helvetica,sans-Serif" font-weight="bold" font-size="32.00" fill="#ffffff"> &#160;&#160;&#160;&#160;&#160;&#160;GameStatistic &#160;&#160;&#160;&#160;&#160;&#160;</text>
<polygon fill="#e7e2dd" stroke="transparent" points="139.13,-1811.72 139.13,-1871.72 484.13,-1871.72 484.13,-1811.72 139.13,-1811.72"/>
<polygon fill="none" stroke="#29235c" points="139.13,-1811.72 139.13,-1871.72 484.13,-1871.72 484.13,-1811.72 139.13,-1811.72"/>
<text text-anchor="start" x="150.13" y="-1832.92" font-family="Helvetica,sans-Serif" font-weight="bold" font-size="32.00" fill="#29235c">id</text>
<text text-anchor="start" x="175.02" y="-1832.92" font-family="Helvetica,sans-Serif" font-size="32.00" fill="#29235c"> &#160;&#160;&#160;</text>
<text text-anchor="start" x="330.91" y="-1832.92" font-family="Helvetica,sans-Serif" font-style="italic" font-size="32.00" fill="#29235c">INTEGER</text>
<polygon fill="#e7e2dd" stroke="transparent" points="139.13,-1751.72 139.13,-1811.72 484.13,-1811.72 484.13,-1751.72 139.13,-1751.72"/>
<polygon fill="none" stroke="#29235c" points="139.13,-1751.72 139.13,-1811.72 484.13,-1811.72 484.13,-1751.72 139.13,-1751.72"/>
<text text-anchor="start" x="150.13" y="-1771.92" font-family="Helvetica,sans-Serif" font-size="32.00" fill="#29235c">player_id &#160;&#160;&#160;</text>
<text text-anchor="start" x="330.91" y="-1772.92" font-family="Helvetica,sans-Serif" font-style="italic" font-size="32.00" fill="#29235c">INTEGER</text>
<polygon fill="#e7e2dd" stroke="transparent" points="139.13,-1691.72 139.13,-1751.72 484.13,-1751.72 484.13,-1691.72 139.13,-1691.72"/>
<polygon fill="none" stroke="#29235c" points="139.13,-1691.72 139.13,-1751.72 484.13,-1751.72 484.13,-1691.72 139.13,-1691.72"/>
<text text-anchor="start" x="150.13" y="-1711.92" font-family="Helvetica,sans-Serif" font-size="32.00" fill="#29235c">game_date &#160;&#160;&#160;</text>
<text text-anchor="start" x="387.8" y="-1712.92" font-family="Helvetica,sans-Serif" font-style="italic" font-size="32.00" fill="#29235c">DATE</text>
<polygon fill="#e7e2dd" stroke="transparent" points="139.13,-1631.72 139.13,-1691.72 484.13,-1691.72 484.13,-1631.72 139.13,-1631.72"/>
<polygon fill="none" stroke="#29235c" points="139.13,-1631.72 139.13,-1691.72 484.13,-1691.72 484.13,-1631.72 139.13,-1631.72"/>
<text text-anchor="start" x="150.13" y="-1651.92" font-family="Helvetica,sans-Serif" font-size="32.00" fill="#29235c">goals &#160;&#160;&#160;</text>
<text text-anchor="start" x="330.91" y="-1652.92" font-family="Helvetica,sans-Serif" font-style="italic" font-size="32.00" fill="#29235c">INTEGER</text>
<polygon fill="#e7e2dd" stroke="transparent" points="139.13,-1571.72 139.13,-1631.72 484.13,-1631.72 484.13,-1571.72 139.13,-1571.72"/>
<polygon fill="none" stroke="#29235c" points="139.13,-1571.72 139.13,-1631.72 484.13,-1631.72 484.13,-1571.72 139.13,-1571.72"/>
<text text-anchor="start" x="150.13" y="-1591.92" font-family="Helvetica,sans-Serif" font-size="32.00" fill="#29235c">assists &#160;&#160;&#160;</text>
<text text-anchor="start" x="330.91" y="-1592.92" font-family="Helvetica,sans-Serif" font-style="italic" font-size="32.00" fill="#29235c">INTEGER</text>
<polygon fill="none" stroke="#29235c" stroke-width="2" points="137.63,-1570.72 137.63,-1932.72 484.63,-1932.72 484.63,-1570.72 137.63,-1570.72"/>
</g>
<!-- GameStatistic&#45;&gt;Player -->
<!-- GameStatistic&#45;&gt;Player -->
<g id="edge12" class="edge">
<title>GameStatistic:e&#45;&gt;Player:w</title>
<path fill="none" stroke="#29235c" stroke-width="3" d="M485.13,-1781.72C599.39,-1781.72 628.39,-1348.28 737.66,-1322.88"/>
<polygon fill="#29235c" stroke="#29235c" stroke-width="3" points="738.24,-1326.34 747.77,-1321.72 737.44,-1319.38 738.24,-1326.34"/>
<text text-anchor="middle" x="754" y="-1292.92" font-family="Helvetica,sans-Serif" font-size="32.00" fill="#29235c">*</text>
<text text-anchor="middle" x="476.23" y="-1752.92" font-family="Helvetica,sans-Serif" font-size="32.00" fill="#29235c">1</text>
</g>
<!-- Healthcare -->
<g id="Healthcare" class="node">
<title>Healthcare</title>
<ellipse fill="none" stroke="black" stroke-width="0" cx="311.13" cy="-1261.72" rx="300.54" ry="214.92"/>
<polygon fill="#1d71b8" stroke="transparent" points="101.13,-1351.72 101.13,-1411.72 522.13,-1411.72 522.13,-1351.72 101.13,-1351.72"/>
<polygon fill="none" stroke="#29235c" points="101.13,-1351.72 101.13,-1411.72 522.13,-1411.72 522.13,-1351.72 101.13,-1351.72"/>
<text text-anchor="start" x="172.03" y="-1372.92" font-family="Helvetica,sans-Serif" font-weight="bold" font-size="32.00" fill="#ffffff"> &#160;&#160;&#160;&#160;&#160;&#160;Healthcare &#160;&#160;&#160;&#160;&#160;&#160;</text>
<polygon fill="#e7e2dd" stroke="transparent" points="101.13,-1291.72 101.13,-1351.72 522.13,-1351.72 522.13,-1291.72 101.13,-1291.72"/>
<polygon fill="none" stroke="#29235c" points="101.13,-1291.72 101.13,-1351.72 522.13,-1351.72 522.13,-1291.72 101.13,-1291.72"/>
<text text-anchor="start" x="112.13" y="-1312.92" font-family="Helvetica,sans-Serif" font-weight="bold" font-size="32.00" fill="#29235c">id</text>
<text text-anchor="start" x="137.02" y="-1312.92" font-family="Helvetica,sans-Serif" font-size="32.00" fill="#29235c"> &#160;&#160;&#160;</text>
<text text-anchor="start" x="368.91" y="-1312.92" font-family="Helvetica,sans-Serif" font-style="italic" font-size="32.00" fill="#29235c">INTEGER</text>
<polygon fill="#e7e2dd" stroke="transparent" points="101.13,-1231.72 101.13,-1291.72 522.13,-1291.72 522.13,-1231.72 101.13,-1231.72"/>
<polygon fill="none" stroke="#29235c" points="101.13,-1231.72 101.13,-1291.72 522.13,-1291.72 522.13,-1231.72 101.13,-1231.72"/>
<text text-anchor="start" x="111.83" y="-1251.92" font-family="Helvetica,sans-Serif" font-size="32.00" fill="#29235c">policy_number &#160;&#160;&#160;</text>
<text text-anchor="start" x="354.91" y="-1252.92" font-family="Helvetica,sans-Serif" font-style="italic" font-size="32.00" fill="#29235c">VARCHAR</text>
<polygon fill="#e7e2dd" stroke="transparent" points="101.13,-1171.72 101.13,-1231.72 522.13,-1231.72 522.13,-1171.72 101.13,-1171.72"/>
<polygon fill="none" stroke="#29235c" points="101.13,-1171.72 101.13,-1231.72 522.13,-1231.72 522.13,-1171.72 101.13,-1171.72"/>
<text text-anchor="start" x="112.13" y="-1191.92" font-family="Helvetica,sans-Serif" font-size="32.00" fill="#29235c">player_id &#160;&#160;&#160;</text>
<text text-anchor="start" x="368.91" y="-1192.92" font-family="Helvetica,sans-Serif" font-style="italic" font-size="32.00" fill="#29235c">INTEGER</text>
<polygon fill="#e7e2dd" stroke="transparent" points="101.13,-1111.72 101.13,-1171.72 522.13,-1171.72 522.13,-1111.72 101.13,-1111.72"/>
<polygon fill="none" stroke="#29235c" points="101.13,-1111.72 101.13,-1171.72 522.13,-1171.72 522.13,-1111.72 101.13,-1111.72"/>
<text text-anchor="start" x="112.13" y="-1131.92" font-family="Helvetica,sans-Serif" font-size="32.00" fill="#29235c">provider &#160;&#160;&#160;</text>
<text text-anchor="start" x="354.7" y="-1132.92" font-family="Helvetica,sans-Serif" font-style="italic" font-size="32.00" fill="#29235c">VARCHAR</text>
<polygon fill="none" stroke="#29235c" stroke-width="2" points="99.63,-1110.72 99.63,-1412.72 522.63,-1412.72 522.63,-1110.72 99.63,-1110.72"/>
</g>
<!-- Healthcare&#45;&gt;Player -->
<!-- Healthcare&#45;&gt;Player -->
<g id="edge14" class="edge">
<title>Healthcare:e&#45;&gt;Player:w</title>
<path fill="none" stroke="#29235c" stroke-width="3" d="M523.13,-1201.72C632.78,-1201.72 634.58,-1314.33 737.49,-1321.37"/>
<polygon fill="#29235c" stroke="#29235c" stroke-width="3" points="737.66,-1324.88 747.77,-1321.72 737.9,-1317.88 737.66,-1324.88"/>
<text text-anchor="middle" x="754" y="-1331.32" font-family="Helvetica,sans-Serif" font-size="32.00" fill="#29235c">*</text>
<text text-anchor="middle" x="514.23" y="-1172.92" font-family="Helvetica,sans-Serif" font-size="32.00" fill="#29235c">1</text>
</g>
<!-- Merchandise -->
<g id="Merchandise" class="node">
<title>Merchandise</title>
<ellipse fill="none" stroke="black" stroke-width="0" cx="958.77" cy="-703.72" rx="235.43" ry="214.92"/>
<polygon fill="#1d71b8" stroke="transparent" points="794.77,-793.72 794.77,-853.72 1123.77,-853.72 1123.77,-793.72 794.77,-793.72"/>
<polygon fill="none" stroke="#29235c" points="794.77,-793.72 794.77,-853.72 1123.77,-853.72 1123.77,-793.72 794.77,-793.72"/>
<text text-anchor="start" x="805.46" y="-814.92" font-family="Helvetica,sans-Serif" font-weight="bold" font-size="32.00" fill="#ffffff"> &#160;&#160;&#160;&#160;&#160;&#160;Merchandise &#160;&#160;&#160;&#160;&#160;&#160;</text>
<polygon fill="#e7e2dd" stroke="transparent" points="794.77,-733.72 794.77,-793.72 1123.77,-793.72 1123.77,-733.72 794.77,-733.72"/>
<polygon fill="none" stroke="#29235c" points="794.77,-733.72 794.77,-793.72 1123.77,-793.72 1123.77,-733.72 794.77,-733.72"/>
<text text-anchor="start" x="805.77" y="-754.92" font-family="Helvetica,sans-Serif" font-weight="bold" font-size="32.00" fill="#29235c">id</text>
<text text-anchor="start" x="830.66" y="-754.92" font-family="Helvetica,sans-Serif" font-size="32.00" fill="#29235c"> &#160;&#160;&#160;</text>
<text text-anchor="start" x="970.56" y="-754.92" font-family="Helvetica,sans-Serif" font-style="italic" font-size="32.00" fill="#29235c">INTEGER</text>
<polygon fill="#e7e2dd" stroke="transparent" points="794.77,-673.72 794.77,-733.72 1123.77,-733.72 1123.77,-673.72 794.77,-673.72"/>
<polygon fill="none" stroke="#29235c" points="794.77,-673.72 794.77,-733.72 1123.77,-733.72 1123.77,-673.72 794.77,-673.72"/>
<text text-anchor="start" x="805.77" y="-693.92" font-family="Helvetica,sans-Serif" font-size="32.00" fill="#29235c">name &#160;&#160;&#160;</text>
<text text-anchor="start" x="956.35" y="-694.92" font-family="Helvetica,sans-Serif" font-style="italic" font-size="32.00" fill="#29235c">VARCHAR</text>
<polygon fill="#e7e2dd" stroke="transparent" points="794.77,-613.72 794.77,-673.72 1123.77,-673.72 1123.77,-613.72 794.77,-613.72"/>
<polygon fill="none" stroke="#29235c" points="794.77,-613.72 794.77,-673.72 1123.77,-673.72 1123.77,-613.72 794.77,-613.72"/>
<text text-anchor="start" x="805.77" y="-633.92" font-family="Helvetica,sans-Serif" font-size="32.00" fill="#29235c">price &#160;&#160;&#160;</text>
<text text-anchor="start" x="970.56" y="-634.92" font-family="Helvetica,sans-Serif" font-style="italic" font-size="32.00" fill="#29235c">INTEGER</text>
<polygon fill="#e7e2dd" stroke="transparent" points="794.77,-553.72 794.77,-613.72 1123.77,-613.72 1123.77,-553.72 794.77,-553.72"/>
<polygon fill="none" stroke="#29235c" points="794.77,-553.72 794.77,-613.72 1123.77,-613.72 1123.77,-553.72 794.77,-553.72"/>
<text text-anchor="start" x="805.77" y="-573.92" font-family="Helvetica,sans-Serif" font-size="32.00" fill="#29235c">club_id &#160;&#160;&#160;</text>
<text text-anchor="start" x="970.56" y="-574.92" font-family="Helvetica,sans-Serif" font-style="italic" font-size="32.00" fill="#29235c">INTEGER</text>
<polygon fill="none" stroke="#29235c" stroke-width="2" points="793.27,-552.72 793.27,-854.72 1124.27,-854.72 1124.27,-552.72 793.27,-552.72"/>
</g>
<!-- Merchandise&#45;&gt;FootballClub -->
<!-- Merchandise&#45;&gt;FootballClub -->
<g id="edge16" class="edge">
<title>Merchandise:e&#45;&gt;FootballClub:w</title>
<path fill="none" stroke="#29235c" stroke-width="3" d="M1124.77,-583.72C1262.05,-583.72 1245.44,-755.04 1375.21,-763.4"/>
<polygon fill="#29235c" stroke="#29235c" stroke-width="3" points="1375.12,-766.9 1385.23,-763.72 1375.34,-759.9 1375.12,-766.9"/>
<text text-anchor="middle" x="1379.01" y="-734.92" font-family="Helvetica,sans-Serif" font-size="32.00" fill="#29235c">*</text>
<text text-anchor="middle" x="1115.88" y="-554.92" font-family="Helvetica,sans-Serif" font-size="32.00" fill="#29235c">1</text>
</g>
<!-- Position -->
<g id="Position" class="node">
<title>Position</title>
<ellipse fill="none" stroke="black" stroke-width="0" cx="311.13" cy="-3052.72" rx="210.02" ry="130.22"/>
<polygon fill="#1d71b8" stroke="transparent" points="165.13,-3082.72 165.13,-3142.72 458.13,-3142.72 458.13,-3082.72 165.13,-3082.72"/>
<polygon fill="none" stroke="#29235c" points="165.13,-3082.72 165.13,-3142.72 458.13,-3142.72 458.13,-3082.72 165.13,-3082.72"/>
<text text-anchor="start" x="192.48" y="-3103.92" font-family="Helvetica,sans-Serif" font-weight="bold" font-size="32.00" fill="#ffffff"> &#160;&#160;&#160;&#160;&#160;&#160;Position &#160;&#160;&#160;&#160;&#160;&#160;</text>
<polygon fill="#e7e2dd" stroke="transparent" points="165.13,-3022.72 165.13,-3082.72 458.13,-3082.72 458.13,-3022.72 165.13,-3022.72"/>
<polygon fill="none" stroke="#29235c" points="165.13,-3022.72 165.13,-3082.72 458.13,-3082.72 458.13,-3022.72 165.13,-3022.72"/>
<text text-anchor="start" x="176.13" y="-3043.92" font-family="Helvetica,sans-Serif" font-weight="bold" font-size="32.00" fill="#29235c">id</text>
<text text-anchor="start" x="201.02" y="-3043.92" font-family="Helvetica,sans-Serif" font-size="32.00" fill="#29235c"> &#160;&#160;&#160;</text>
<text text-anchor="start" x="304.91" y="-3043.92" font-family="Helvetica,sans-Serif" font-style="italic" font-size="32.00" fill="#29235c">INTEGER</text>
<polygon fill="#e7e2dd" stroke="transparent" points="165.13,-2962.72 165.13,-3022.72 458.13,-3022.72 458.13,-2962.72 165.13,-2962.72"/>
<polygon fill="none" stroke="#29235c" points="165.13,-2962.72 165.13,-3022.72 458.13,-3022.72 458.13,-2962.72 165.13,-2962.72"/>
<text text-anchor="start" x="175.83" y="-2982.92" font-family="Helvetica,sans-Serif" font-size="32.00" fill="#29235c">name &#160;&#160;&#160;</text>
<text text-anchor="start" x="290.91" y="-2983.92" font-family="Helvetica,sans-Serif" font-style="italic" font-size="32.00" fill="#29235c">VARCHAR</text>
<polygon fill="none" stroke="#29235c" stroke-width="2" points="163.63,-2961.72 163.63,-3143.72 458.63,-3143.72 458.63,-2961.72 163.63,-2961.72"/>
</g>
<!-- PracticeSchedule -->
<g id="PracticeSchedule" class="node">
<title>PracticeSchedule</title>
<ellipse fill="none" stroke="black" stroke-width="0" cx="958.77" cy="-255.72" rx="282.27" ry="214.92"/>
<polygon fill="#1d71b8" stroke="transparent" points="761.77,-345.72 761.77,-405.72 1156.77,-405.72 1156.77,-345.72 761.77,-345.72"/>
<polygon fill="none" stroke="#29235c" points="761.77,-345.72 761.77,-405.72 1156.77,-405.72 1156.77,-345.72 761.77,-345.72"/>
<text text-anchor="start" x="772.55" y="-366.92" font-family="Helvetica,sans-Serif" font-weight="bold" font-size="32.00" fill="#ffffff"> &#160;&#160;&#160;&#160;&#160;&#160;PracticeSchedule &#160;&#160;&#160;&#160;&#160;&#160;</text>
<polygon fill="#e7e2dd" stroke="transparent" points="761.77,-285.72 761.77,-345.72 1156.77,-345.72 1156.77,-285.72 761.77,-285.72"/>
<polygon fill="none" stroke="#29235c" points="761.77,-285.72 761.77,-345.72 1156.77,-345.72 1156.77,-285.72 761.77,-285.72"/>
<text text-anchor="start" x="772.77" y="-306.92" font-family="Helvetica,sans-Serif" font-weight="bold" font-size="32.00" fill="#29235c">id</text>
<text text-anchor="start" x="797.66" y="-306.92" font-family="Helvetica,sans-Serif" font-size="32.00" fill="#29235c"> &#160;&#160;&#160;</text>
<text text-anchor="start" x="1003.56" y="-306.92" font-family="Helvetica,sans-Serif" font-style="italic" font-size="32.00" fill="#29235c">INTEGER</text>
<polygon fill="#e7e2dd" stroke="transparent" points="761.77,-225.72 761.77,-285.72 1156.77,-285.72 1156.77,-225.72 761.77,-225.72"/>
<polygon fill="none" stroke="#29235c" points="761.77,-225.72 761.77,-285.72 1156.77,-285.72 1156.77,-225.72 761.77,-225.72"/>
<text text-anchor="start" x="772.77" y="-245.92" font-family="Helvetica,sans-Serif" font-size="32.00" fill="#29235c">club_id &#160;&#160;&#160;</text>
<text text-anchor="start" x="1003.56" y="-246.92" font-family="Helvetica,sans-Serif" font-style="italic" font-size="32.00" fill="#29235c">INTEGER</text>
<polygon fill="#e7e2dd" stroke="transparent" points="761.77,-165.72 761.77,-225.72 1156.77,-225.72 1156.77,-165.72 761.77,-165.72"/>
<polygon fill="none" stroke="#29235c" points="761.77,-165.72 761.77,-225.72 1156.77,-225.72 1156.77,-165.72 761.77,-165.72"/>
<text text-anchor="start" x="772.77" y="-185.92" font-family="Helvetica,sans-Serif" font-size="32.00" fill="#29235c">date &#160;&#160;&#160;</text>
<text text-anchor="start" x="1060.44" y="-186.92" font-family="Helvetica,sans-Serif" font-style="italic" font-size="32.00" fill="#29235c">DATE</text>
<polygon fill="#e7e2dd" stroke="transparent" points="761.77,-105.72 761.77,-165.72 1156.77,-165.72 1156.77,-105.72 761.77,-105.72"/>
<polygon fill="none" stroke="#29235c" points="761.77,-105.72 761.77,-165.72 1156.77,-165.72 1156.77,-105.72 761.77,-105.72"/>
<text text-anchor="start" x="772.77" y="-125.92" font-family="Helvetica,sans-Serif" font-size="32.00" fill="#29235c">time &#160;&#160;&#160;</text>
<text text-anchor="start" x="989.35" y="-126.92" font-family="Helvetica,sans-Serif" font-style="italic" font-size="32.00" fill="#29235c">VARCHAR</text>
<polygon fill="none" stroke="#29235c" stroke-width="2" points="760.27,-104.72 760.27,-406.72 1157.27,-406.72 1157.27,-104.72 760.27,-104.72"/>
</g>
<!-- PracticeSchedule&#45;&gt;FootballClub -->
<!-- PracticeSchedule&#45;&gt;FootballClub -->
<g id="edge18" class="edge">
<title>PracticeSchedule:e&#45;&gt;FootballClub:w</title>
<path fill="none" stroke="#29235c" stroke-width="3" d="M1157.77,-255.72C1401.65,-255.72 1145.32,-749.43 1375.03,-763.41"/>
<polygon fill="#29235c" stroke="#29235c" stroke-width="3" points="1375.13,-766.92 1385.23,-763.72 1375.34,-759.92 1375.13,-766.92"/>
<text text-anchor="middle" x="1379.01" y="-773.32" font-family="Helvetica,sans-Serif" font-size="32.00" fill="#29235c">*</text>
<text text-anchor="middle" x="1148.88" y="-226.92" font-family="Helvetica,sans-Serif" font-size="32.00" fill="#29235c">1</text>
</g>
<!-- Stadium -->
<g id="Stadium" class="node">
<title>Stadium</title>
<ellipse fill="none" stroke="black" stroke-width="0" cx="311.13" cy="-3415.72" rx="231.45" ry="214.92"/>
<polygon fill="#1d71b8" stroke="transparent" points="150.13,-3505.72 150.13,-3565.72 473.13,-3565.72 473.13,-3505.72 150.13,-3505.72"/>
<polygon fill="none" stroke="#29235c" points="150.13,-3505.72 150.13,-3565.72 473.13,-3565.72 473.13,-3505.72 150.13,-3505.72"/>
<text text-anchor="start" x="190.7" y="-3526.92" font-family="Helvetica,sans-Serif" font-weight="bold" font-size="32.00" fill="#ffffff"> &#160;&#160;&#160;&#160;&#160;&#160;Stadium &#160;&#160;&#160;&#160;&#160;&#160;</text>
<polygon fill="#e7e2dd" stroke="transparent" points="150.13,-3445.72 150.13,-3505.72 473.13,-3505.72 473.13,-3445.72 150.13,-3445.72"/>
<polygon fill="none" stroke="#29235c" points="150.13,-3445.72 150.13,-3505.72 473.13,-3505.72 473.13,-3445.72 150.13,-3445.72"/>
<text text-anchor="start" x="161.13" y="-3466.92" font-family="Helvetica,sans-Serif" font-weight="bold" font-size="32.00" fill="#29235c">id</text>
<text text-anchor="start" x="186.02" y="-3466.92" font-family="Helvetica,sans-Serif" font-size="32.00" fill="#29235c"> &#160;&#160;&#160;</text>
<text text-anchor="start" x="319.91" y="-3466.92" font-family="Helvetica,sans-Serif" font-style="italic" font-size="32.00" fill="#29235c">INTEGER</text>
<polygon fill="#e7e2dd" stroke="transparent" points="150.13,-3385.72 150.13,-3445.72 473.13,-3445.72 473.13,-3385.72 150.13,-3385.72"/>
<polygon fill="none" stroke="#29235c" points="150.13,-3385.72 150.13,-3445.72 473.13,-3445.72 473.13,-3385.72 150.13,-3385.72"/>
<text text-anchor="start" x="161.13" y="-3405.92" font-family="Helvetica,sans-Serif" font-size="32.00" fill="#29235c">name &#160;&#160;&#160;</text>
<text text-anchor="start" x="305.7" y="-3406.92" font-family="Helvetica,sans-Serif" font-style="italic" font-size="32.00" fill="#29235c">VARCHAR</text>
<polygon fill="#e7e2dd" stroke="transparent" points="150.13,-3325.72 150.13,-3385.72 473.13,-3385.72 473.13,-3325.72 150.13,-3325.72"/>
<polygon fill="none" stroke="#29235c" points="150.13,-3325.72 150.13,-3385.72 473.13,-3385.72 473.13,-3325.72 150.13,-3325.72"/>
<text text-anchor="start" x="160.72" y="-3345.92" font-family="Helvetica,sans-Serif" font-size="32.00" fill="#29235c">location &#160;&#160;&#160;</text>
<text text-anchor="start" x="305.91" y="-3346.92" font-family="Helvetica,sans-Serif" font-style="italic" font-size="32.00" fill="#29235c">VARCHAR</text>
<polygon fill="#e7e2dd" stroke="transparent" points="150.13,-3265.72 150.13,-3325.72 473.13,-3325.72 473.13,-3265.72 150.13,-3265.72"/>
<polygon fill="none" stroke="#29235c" points="150.13,-3265.72 150.13,-3325.72 473.13,-3325.72 473.13,-3265.72 150.13,-3265.72"/>
<text text-anchor="start" x="161.13" y="-3285.92" font-family="Helvetica,sans-Serif" font-size="32.00" fill="#29235c">capacity &#160;&#160;&#160;</text>
<text text-anchor="start" x="319.91" y="-3286.92" font-family="Helvetica,sans-Serif" font-style="italic" font-size="32.00" fill="#29235c">INTEGER</text>
<polygon fill="none" stroke="#29235c" stroke-width="2" points="148.63,-3264.72 148.63,-3566.72 473.63,-3566.72 473.63,-3264.72 148.63,-3264.72"/>
</g>
</g>
</svg>
